<?xml version="1.0" encoding="iso-8859-1"?>
<!-- Uploaded to: SVG Repo, www.svgrepo.com, Generator: SVG Repo Mixer Tools -->
<!DOCTYPE svg PUBLIC "-//W3C//DTD SVG 1.1//EN" "http://www.w3.org/Graphics/SVG/1.1/DTD/svg11.dtd">
<svg fill="#000000" version="1.1" id="Capa_1" xmlns="http://www.w3.org/2000/svg" xmlns:xlink="http://www.w3.org/1999/xlink" 
	 width="800px" height="800px" viewBox="0 0 514.942 514.942"
	 xml:space="preserve">
<g>
	<path d="M482.657,319.373c0.299-0.705,0.238-1.512-0.164-2.17c-0.4-0.663-1.096-1.083-1.861-1.139l-29.44-2.259
		c0.094-0.505,0.191-1.004,0.275-1.508c26.677-45.742,27.195-106.734,27.195-107.345c0.005-0.635-0.252-1.241-0.7-1.692
		c-0.448-0.448-1.06-0.702-1.689-0.702h-20.937c7.542-57.135-13.927-92.924-14.86-94.443c-0.573-0.938-1.717-1.349-2.763-1.029
		l-16.591,5.295c-3.039-10.375-15.565-50.792-31.246-70.042c-0.005-0.004-0.005-0.014-0.01-0.023
		c-0.056-0.086-0.136-0.13-0.196-0.208c-2.062-2.504-4.177-4.676-6.333-6.331c-0.812-0.625-1.937-0.655-2.796-0.082l-13.684,9.311
		C334.066,16.781,294.452,0.236,251.812,0.236V0.203c-5.075-0.478-10.179,0.038-15.35,0.038
		c-112.691,0-204.365,115.41-204.365,257.275c0,141.86,91.678,257.272,204.365,257.272c5.171,0,10.274,0.397,15.35-0.084v0.084
		c40.709,0,78.634-15.121,110.528-41.042c0.158,0.033,0.312,0.079,0.485,0.079c0.187,0,0.378-0.019,0.569-0.069
		c51.23-12.583,77.23-56.663,78.313-58.535c0.396-0.686,0.43-1.521,0.084-2.23c-0.336-0.714-1.008-1.214-1.792-1.33l-20.759-3.184
		C457.021,379.63,481.603,321.884,482.657,319.373z M476.897,320.568c-0.83,1.834-2.081,4.484-3.64,7.645
		c-0.304-0.294-0.653-0.532-1.088-0.635l-22.556-5.325c0.252-1.228,0.462-2.483,0.7-3.72L476.897,320.568z M453.684,297.592
		c1.634-13.063,2.497-26.443,2.497-40.076c0-14.454-0.999-28.609-2.833-42.417l19.686,4.646
		C471.456,237.728,466.854,269.169,453.684,297.592z M452.597,207.333h21.23c-0.061,1.701-0.187,4.345-0.411,7.588l-20.792-4.903
		c-0.135-0.917-0.247-1.85-0.392-2.763C452.358,207.274,452.471,207.333,452.597,207.333z M442.165,123.102
		c5.647,14.629,12.77,41.411,8.686,76.302c-5.035-27.344-13.502-53.046-24.87-76.302H442.165z M437.303,112.234
		c0.681,1.281,1.708,3.374,2.902,6.088h-16.656c-0.248-0.487-0.49-0.98-0.742-1.463L437.303,112.234z M387.29,46.727
		c9.591,12.522,18.117,33.815,23.597,49.515c-10.184-15.875-21.818-30.189-34.667-42.643L387.29,46.727z M381.755,40.658
		c0.812,0.711,1.615,1.523,2.418,2.38l-11.528,7.155c-0.7-0.646-1.409-1.263-2.114-1.893L381.755,40.658z M236.462,510.01
		c-110.048,0-199.585-113.271-199.585-252.494C36.876,118.29,126.41,5.02,236.462,5.02c110.052,0,199.595,113.27,199.595,252.496
		C436.057,396.739,346.514,510.01,236.462,510.01z M370.577,466.689c14.622-13.189,27.82-28.698,39.223-46.176l18.168,5.502
		C417.388,438.785,398.136,457.495,370.577,466.689z M435.646,415.837c-1.05,1.559-2.571,3.691-4.467,6.161l-18.762-5.681
		c0.771-1.228,1.555-2.44,2.306-3.682L435.646,415.837z M294.863,504.031c84.315-31.718,145.968-130.198,145.968-246.516
		c0-116.32-61.652-214.802-145.968-246.518c89.421,24.98,156.538,125.993,156.538,246.518
		C451.401,378.038,384.284,479.048,294.863,504.031z M421.784,400.165c11.812-22.22,20.904-46.895,26.784-73.255l22.515,5.316
		c0.051,0.009,0.098,0.009,0.149,0.014C462.075,350.157,444.494,380.386,421.784,400.165z M236.338,298.208l0.311,0.005l0.306-0.07
		c14.496-3.463,25.013-20.512,25.013-40.557c0-20.045-10.517-37.097-25.013-40.557l-0.306-0.07l-0.311,0.004
		c-16.431,0.429-29.295,18.269-29.295,40.623C207.043,279.937,219.912,297.778,236.338,298.208z M236.151,221.756
		c12.015,3.087,21.037,18.414,21.037,35.833c0,17.423-9.021,32.749-21.037,35.834c-13.443-0.593-24.33-16.572-24.33-35.834
		C211.822,238.329,222.708,222.349,236.151,221.756z M421.892,258.78c0-10.251-0.578-20.332-1.605-30.238l-0.438-4.35
		c-6.856-57.855-30.645-108.834-64.808-144.682c-0.13-0.187-0.279-0.348-0.457-0.497c-32.1-33.467-73.273-53.615-118.121-53.615
		c-77.441,0-143.907,60.082-171.623,145.13c-0.611,0.602-0.798,1.444-0.697,2.229c-6.963,22.017-11.336,45.658-12.646,70.356
		c-0.233,0.574-0.271,1.211-0.105,1.783c-0.215,4.599-0.357,9.222-0.357,13.884c0,128.686,83.179,233.378,185.428,233.378
		c51.335,0,97.861-26.402,131.469-68.971c0.089,0,0.178,0,0.262,0l2.306-3.024c-0.028-0.084-0.075-0.145-0.103-0.229
		C402.257,378.01,421.892,321.244,421.892,258.78z M400.47,354.47c-5.918-4.536-12.177-8.032-18.701-10.847
		c13.344-14.095,15.317-37.611,32.843-47.086C411.923,316.876,407.116,336.306,400.47,354.47z M379.646,285.574
		c-4.061,0.672-8.195,1.4-12.438,1.932c-21.927,2.754-42.924-5.656-64.065-10.352c1.046-6.328,1.643-12.886,1.643-19.634
		c0-6.506-0.536-12.839-1.512-18.951c19.387,1.405,38.886,10.557,58.38,6.914c14.478-2.705,27.308-10.198,41.183-14.136
		c-5.241,4.268-9.161,9.635-11.779,16.836C386.45,260.871,386.608,273.691,379.646,285.574z M382.927,289.457
		c10.206-1.438,20.203-1.886,29.574,2.885c-19.098,10.515-19.984,34.652-35.488,49.335c-8.209-3.099-16.811-5.334-25.706-7.397
		c-22.28-5.152-41.309-12.582-56.183-30.308c3.071-6.852,5.489-14.271,7.127-22.146c16.228,3.557,32.002,8.952,48.612,10.632
		c9.46,0.957,19.112-0.994,28.628-2.487L382.927,289.457z M302.349,233.732c-1.908-9.399-4.867-18.218-8.783-26.131
		c37.374-4.417,65.11-37.014,103.227-37.124c-8.765,7.411-13.623,16.12-16.148,27.384c-3.015,13.434-5.269,29.969-13.86,41.644
		C345.445,245.629,323.775,234.985,302.349,233.732z M338.099,335.969c19.406,5.405,38.803,8.224,55.595,19.514
		c-38.979,4.845-92.306,10.762-112.99-28.74c4.644-5.227,8.737-11.289,12.186-18.006
		C305.052,322.701,320.056,330.943,338.099,335.969z M417.112,258.78c0,10.081-0.569,19.989-1.572,29.72
		c-9.824-5.441-19.645-5.264-29.893-3.85c3.985-7.916,5.861-16.307,7.561-25.193c2.763-14.507,9.04-23.888,22.341-30.308
		C416.548,238.856,417.112,248.734,417.112,258.78z M403.148,170.691c5.601,16.918,9.656,34.854,11.901,53.536
		c-0.196,0.033-0.393,0.056-0.598,0.138c-14.3,1.272-26.729,7.685-40.053,12.608c13.03-20.365,5.983-47.056,26.537-63.797
		c0.947-0.77,0.971-1.75,0.527-2.548C402.033,170.673,402.579,170.641,403.148,170.691z M401.454,165.854
		c-12.083-0.817-23.06,1.654-33.514,5.703c0.121-0.259,0.219-0.537,0.242-0.866c2.315-28.693-11.648-55.202-12.647-83.61
		C374.997,108.722,390.753,135.546,401.454,165.854z M363.408,170.691c-0.089,1.127,0.5,1.825,1.293,2.126
		c-24.39,10.242-46.325,27.921-73.623,30.201c-4.224-7.469-9.255-14.05-14.977-19.443c21.515-0.798,37.972-10.284,47.203-31.757
		c9.343-21.73,10.986-47.655,27.433-65.502C351.508,115.016,365.737,141.812,363.408,170.691z M314.745,52.783
		c12.471,7.617,24.129,17.037,34.816,27.923c-7.393,7.113-12.312,15.761-16.06,25.043c-0.089-0.158-0.136-0.317-0.267-0.469
		C321.144,91.202,313.568,71.493,314.745,52.783z M329.856,108.664c0.691,0.803,1.531,0.898,2.269,0.625
		c-3.229,8.718-5.628,17.861-8.289,26.672c-3.411,11.318-7.588,22.633-15.858,31.351c-9.675,10.209-24.101,12.021-37.505,11.5
		c-6.148-4.651-12.888-8.016-20.033-9.857c19.544-7.267,30.385-22.15,34.828-43.679c5.312-25.732,3.478-54.525,24.74-73.46
		C308.379,72.072,316.784,93.438,329.856,108.664z M74.446,171.59c19.632-7.661,39.806-13.777,61.052-14.519
		c23.873-0.835,45.88,8.186,65.375,21.258c-3.255,2.399-6.315,5.209-9.215,8.277C159.193,159.495,112.252,182.009,74.446,171.59z
		 M188.503,190.186c-1.295,1.557-2.56,3.148-3.767,4.835c-19.396-10.02-40.66-13.217-61.82-17.247
		C146.781,176.12,170.406,175.002,188.503,190.186z M231.683,213.977c18.017,0,32.674,19.56,32.674,43.609
		c0,24.049-14.657,43.609-32.674,43.609c-18.018,0-32.674-19.561-32.674-43.609C199.008,233.536,213.665,213.977,231.683,213.977z
		 M205.37,118.742c5.089,16.153,4.861,33.335,5.773,50.636c-9.626-17.84-26.185-29.034-43.695-38.644
		c-17.674-9.698-40.613-18.53-49.989-37.589c28.894,8.852,66.28,0.994,87.753,25.473
		C205.255,118.677,205.311,118.691,205.37,118.742z M170.95,58.738c10.443,6.072,22.313,8.587,34.539,11.164
		c23.035,4.863,36.392,15.838,41.32,39.693c0.091,0.427,0.269,0.747,0.488,1.008c-1.683,19.056-12.253,37.407-13.033,56.796
		c-0.465-0.028-0.913-0.096-1.382-0.096c-5.85,0-11.493,1.118-16.909,3.029c-1.26-22.437-0.707-43.59-10.639-64.401
		C196.92,88.299,182.363,74.531,170.95,58.738z M306.829,48.237c-10.426,9.171-15.821,20.836-19.088,33.435
		c-6.758-23.331-26.992-43.418-50.062-51.452C262.182,30.425,285.548,36.805,306.829,48.237z M285.034,91.478
		c0.056,0.422,0.205,0.742,0.401,0.999c-0.784,4.417-1.419,8.891-2.007,13.359c-3.817,28.88-10.44,53.263-42.125,60.961
		c-0.497,0.119-0.842,0.374-1.115,0.67c-0.385-0.021-0.763-0.072-1.15-0.082c0.945-23.041,16.066-43.915,12.909-67.271
		c-3.333-24.621-21.478-43.523-25.13-67.874C255.058,37.743,281.039,62.779,285.034,91.478z M221.852,30.994
		c2.758,21.739,16.689,38.571,23.111,58.992c-5.246-9.673-13.222-16.974-25.151-21.266c-18.811-6.763-38.944-5.974-54.548-20.01
		C182.874,39.122,201.914,33.02,221.852,30.994z M160.46,51.466c10.485,18.157,25.839,32.695,37.084,50.339
		c1.419,2.226,2.64,4.487,3.757,6.767c-23.251-17.684-57.608-11.493-84.605-20.731C129.739,73.189,144.464,60.896,160.46,51.466z
		 M112.292,92.98c7.164,16.415,22.825,25.795,38.161,34.107c22.131,11.985,45.975,23.042,57.689,46.692
		c-1.038,0.56-2.056,1.167-3.068,1.792c-0.159-0.201-0.315-0.401-0.56-0.569c-19.886-13.577-41.392-22.068-65.617-22.72
		c-23.445-0.63-46.573,7.036-68.179,15.675C80.497,139.495,94.727,114.045,112.292,92.98z M68.515,174.74
		c11.595,4.161,24.406,4.621,37.535,4.067c0.269,0.248,0.593,0.458,1.043,0.562c25.281,5.869,51.555,7.666,74.953,19.646
		c-0.156,0.25-0.334,0.479-0.49,0.728c-15.403-3.972-32.188-5.071-47.42,0.133c-14.155,4.842-24.53,17.038-37.189,24.67
		c-12.813,7.397-25.578,14.748-40.552,16.699C57.801,217.927,61.971,195.591,68.515,174.74z M179.112,204.05
		c-1.911,3.484-3.689,7.115-5.218,10.958c-16.703-8.851-33.248-9.74-50.708-3.507c1.239-0.889,2.438-1.811,3.715-2.653
		C142.042,198.906,162.131,199.863,179.112,204.05z M56.109,246.014c18.365-2.231,33.969-11.89,49.835-20.941
		c22.127-12.622,43.217-18.063,66.343-5.563c-0.549,1.587-1.078,3.183-1.562,4.819c-0.432-0.201-0.924-0.311-1.5-0.182
		c-35.661,7.838-76.074,35.577-113.137,22.246C56.088,246.263,56.104,246.14,56.109,246.014z M55.813,258.78
		c0-2.487,0.084-4.952,0.147-7.423c37.607,12.758,77.396-14.064,113.489-22.341c-1.136,4.579-1.974,9.33-2.553,14.202
		c-0.086-0.009-0.143-0.042-0.229-0.042c-17.014,0.346-32.889,5.003-48.05,12.403c-10.347,2.684-19.513,8.083-25.753,18.169
		c-13.439,21.711-3.781,55.249-22.901,73.712C60.854,320.181,55.813,290.213,55.813,258.78z M166.357,247.969
		c-0.201,2.529-0.273,5.104-0.311,7.694c-9.262-1.288-19.543-2.509-29.636-2.32C145.997,250.125,155.919,248.219,166.357,247.969z
		 M71.707,352.369c16.594-14.09,15.709-40.398,19.709-60.019c7.565-37.104,44.16-36.118,74.664-31.886
		c0.028,1.139,0.073,2.273,0.128,3.402c-26.532-3.169-44.024,10.314-55.786,33.439c-8.96,17.623-15.163,52.436-37.959,57.168
		C72.204,353.779,71.961,353.074,71.707,352.369z M74.146,359.02c19.053-4.148,26.437-26.938,33.057-42.853
		c11.149-26.794,25.548-52.094,58.831-47.586c0.175,0.023,0.324-0.019,0.492-0.027c0.219,2.422,0.462,4.844,0.821,7.206
		c-32.482,12.899-42.391,47.328-43.261,79.732c-0.908,33.761,6.686,70.164,21.501,100.743
		C114.858,433.497,89.873,399.643,74.146,359.02z M128.89,363.473c-0.976-31.928,6.886-69.675,39.374-82.948
		c1.533,7.841,3.813,15.252,6.768,22.104c-0.306,0.116-0.611,0.303-0.894,0.593c-18.081,18.71-27.608,40.538-29.587,66.412
		c-1.993,26.005,2.585,52.066,2.345,78.137C135.394,421.461,129.753,391.848,128.89,363.473z M150.662,459.908
		c0.732-0.682,1.125-1.741,0.546-2.875c-0.091-0.182-0.168-0.373-0.259-0.556c0.315-0.368,0.56-0.816,0.588-1.423
		c1.157-24.223-2.135-48.239-2.532-72.434c-0.474-29.029,7.857-54.357,28.046-75.513c3.575,7.28,7.901,13.833,12.842,19.434
		c-52.12,36.352,3.785,114.87,19.7,158.303C188.552,480.85,168.684,472.267,150.662,459.908z M183.745,413.009
		c-10.032-26.766-18.993-63.365,8.821-82.542c0.24-0.168,0.396-0.373,0.556-0.574c2.581,2.581,5.255,4.984,8.1,7.062
		c-0.072,0.126-0.168,0.224-0.22,0.378c-6.485,19.158-14.867,36.623-10.788,57.153c2.873,14.435,9.511,28.161,13.917,42.162
		c3.895,12.382,6.228,24.969,6.602,37.775C202.42,453.706,191.585,433.936,183.745,413.009z M236.462,487.383
		c-7.16,0-14.209-0.588-21.151-1.619c1.825-29.533-8.69-55.338-17.838-82.896c-7.731-23.293,0.327-41.364,7.801-63.281
		c2.289,1.405,4.634,2.68,7.059,3.738c-0.054,0.126-0.14,0.225-0.173,0.379c-5.731,24.786-2.527,50.492,13.625,70.893
		c10.169,12.839,23.618,22.383,33.549,35.475c7.297,9.618,12.701,20.67,18.745,31.12
		C264.712,485.199,250.785,487.383,236.462,487.383z M281.049,476.883c-10.65-18.048-20.381-34.774-36.177-49.331
		c-24.486-22.57-35.78-49.346-28.105-82.584c0,0,0,0,0-0.005c4.326,1.446,8.809,2.324,13.42,2.571
		c-1.983,23.56,10.907,43.534,24.435,62.007C268.484,428.476,290.369,452.138,281.049,476.883z M285.436,478.772
		c7.384-19.541-2.558-38.036-14.16-54.596c-15.917-22.724-39.397-46.717-36.342-76.601c0.63-0.051,1.265-0.079,1.893-0.131
		c0.32,0.164,0.667,0.275,1.05,0.275c3.383,0,6.686-0.447,9.94-1.11c6.124,24.311,13.306,50.218,34.464,65.703
		c21.385,15.653,53.719,11.033,79.546,10.832C340.656,449.006,314.53,468.389,285.436,478.772z M287.33,409.868
		c-22.161-12.187-29.167-41.411-34.872-64.369c3.052-0.919,6.007-2.155,8.889-3.621c8.071,19.434,23.818,29.669,43.556,36.679
		c24.189,8.592,48.804,14.622,59.696,39.801C339.145,418.109,310.246,422.469,287.33,409.868z M324.956,380.209
		c-24.343-8.621-49.14-14.688-59.486-40.608c4.168-2.558,8.093-5.681,11.752-9.283c22.747,41.719,80.722,34.35,121.307,29.342
		c-7.934,20.325-18.197,38.933-30.326,55.305C359.638,396.781,344.134,387.004,324.956,380.209z"/>
</g>
</svg>